# xmcd
#
# Track frame offsets:
# 150
# 18637
# 35120
# 49965
# 59885
# 85247
# 96360
# 114030
# 128192
# 143485
# 158280
# 175352
# 193722
#
# Disc length: 2875 seconds
#
# Revision: 1
# Processed by: cddbd v1.5.1PL0 Copyright (c) Steve Scherf et al.
# Submitted via: inCDius 2.0b9
#
DISCID=b20b390d
DTITLE=Kinky Friedman - Sold American (30th Anniversary re-release)
DYEAR=1900
DGENRE=
TTITLE0=We Refuse The Right To Resfuse Service To You
TTITLE1=Highway Cafe
TTITLE2=Sold American
TTITLE3=Flyin' Down The Freeway
TTITLE4=Ride 'Em Jewboy
TTITLE5=Get Your Buscuits In The Oven And Your Buns In The Bed
TTITLE6=High On Jesus
TTITLE7=The Ballad Of Charles Whitman
TTITLE8=Top Ten Commandments
TTITLE9=Western Union Wire
TTITLE10=Silver Eagle Express
TTITLE11=Nashville Casualty And Life
TTITLE12=Tramp On The Street
EXTD=
EXTT0=
EXTT1=
EXTT2=
EXTT3=
EXTT4=
EXTT5=
EXTT6=
EXTT7=
EXTT8=
EXTT9=
EXTT10=
EXTT11=
EXTT12=
PLAYORDER=
